<svg width="173" height="230" viewBox="0 0 173 230" fill="none" xmlns="http://www.w3.org/2000/svg">
<rect x="0.5" y="0.5" width="172" height="229" rx="4.5" stroke="#9747FF" stroke-dasharray="10 5"/>
<rect x="20.3" y="20.3" width="132.4" height="31.4" rx="3.7" fill="#FCFDFD" stroke="#AEB6CF" stroke-width="0.6"/>
<path opacity="0.7" d="M141.189 33.1402L137.359 37.4772L133.53 33.1402C133.228 32.7631 132.926 32.7552 132.625 33.1166C132.323 33.478 132.323 33.8316 132.625 34.1773L136.907 39.08C137.016 39.2372 137.167 39.3158 137.359 39.3158C137.552 39.3158 137.703 39.2372 137.812 39.08L142.094 34.1773C142.396 33.8316 142.396 33.478 142.094 33.1166C141.793 32.7552 141.491 32.7631 141.189 33.1402Z" fill="#2B3034"/>
<path d="M37.5406 33.6056C37.4852 33.1378 37.2605 32.7747 36.8666 32.5161C36.4726 32.2576 35.9894 32.1284 35.417 32.1284C34.9984 32.1284 34.6322 32.1961 34.3183 32.3315C34.0074 32.4669 33.7643 32.6531 33.5889 32.8901C33.4165 33.127 33.3303 33.3963 33.3303 33.698C33.3303 33.9503 33.3903 34.1673 33.5104 34.3489C33.6335 34.5274 33.7904 34.6766 33.9813 34.7967C34.1721 34.9136 34.3721 35.0106 34.5814 35.0875C34.7907 35.1614 34.983 35.2214 35.1585 35.2676L36.1187 35.5261C36.3649 35.5907 36.6388 35.68 36.9404 35.7938C37.2451 35.9077 37.5359 36.0631 37.8129 36.2601C38.093 36.454 38.3238 36.7033 38.5054 37.008C38.687 37.3127 38.7778 37.6866 38.7778 38.1298C38.7778 38.6407 38.6439 39.1023 38.3761 39.5147C38.1115 39.9271 37.7237 40.2549 37.2128 40.498C36.705 40.7412 36.0879 40.8627 35.3616 40.8627C34.6845 40.8627 34.0982 40.7535 33.6027 40.535C33.1103 40.3164 32.7225 40.0118 32.4394 39.6209C32.1593 39.23 32.0008 38.7761 31.9639 38.259H33.1457C33.1765 38.616 33.2965 38.9115 33.5058 39.1454C33.7181 39.3762 33.9859 39.5486 34.309 39.6624C34.6353 39.7732 34.9861 39.8286 35.3616 39.8286C35.7986 39.8286 36.191 39.7578 36.5388 39.6163C36.8866 39.4716 37.162 39.2716 37.3651 39.0161C37.5683 38.7576 37.6698 38.456 37.6698 38.1113C37.6698 37.7974 37.5821 37.5419 37.4067 37.345C37.2313 37.148 37.0004 36.988 36.7142 36.8649C36.428 36.7418 36.1187 36.634 35.7863 36.5417L34.6229 36.2093C33.8843 35.997 33.2996 35.6938 32.8687 35.2999C32.4378 34.9059 32.2224 34.3904 32.2224 33.7534C32.2224 33.224 32.3655 32.7623 32.6517 32.3684C32.941 31.9714 33.3288 31.6636 33.8151 31.4451C34.3044 31.2235 34.8507 31.1127 35.4539 31.1127C36.0633 31.1127 36.605 31.222 37.0789 31.4405C37.5529 31.6559 37.9283 31.9514 38.2053 32.3269C38.4854 32.7023 38.6331 33.1286 38.6485 33.6056H37.5406ZM43.4854 40.8443C42.8022 40.8443 42.2128 40.6935 41.7173 40.3918C41.2249 40.0872 40.8448 39.6624 40.577 39.1177C40.3124 38.5699 40.18 37.9328 40.18 37.2065C40.18 36.4802 40.3124 35.84 40.577 35.286C40.8448 34.729 41.2172 34.295 41.6942 33.9842C42.1743 33.6703 42.7345 33.5133 43.3746 33.5133C43.744 33.5133 44.1087 33.5748 44.4687 33.698C44.8288 33.8211 45.1566 34.0211 45.452 34.2981C45.7475 34.572 45.9829 34.9352 46.1584 35.3876C46.3338 35.84 46.4215 36.3971 46.4215 37.0587V37.5204H40.9556V36.5786H45.3136C45.3136 36.1785 45.2335 35.8215 45.0735 35.5076C44.9165 35.1937 44.6919 34.9459 44.3995 34.7644C44.1102 34.5828 43.7686 34.492 43.3746 34.492C42.9407 34.492 42.5652 34.5997 42.2482 34.8151C41.9343 35.0275 41.6927 35.3045 41.5234 35.6461C41.3542 35.9877 41.2695 36.354 41.2695 36.7448V37.3727C41.2695 37.9082 41.3618 38.3621 41.5465 38.7345C41.7342 39.1038 41.9943 39.3855 42.3267 39.5793C42.6591 39.7702 43.0453 39.8656 43.4854 39.8656C43.7717 39.8656 44.0302 39.8256 44.261 39.7455C44.4949 39.6624 44.6965 39.5393 44.8658 39.3762C45.035 39.21 45.1658 39.0038 45.2582 38.7576L46.3107 39.0531C46.1999 39.4101 46.0137 39.724 45.7521 39.9948C45.4905 40.2626 45.1674 40.4719 44.7827 40.6227C44.398 40.7704 43.9655 40.8443 43.4854 40.8443ZM49.1683 31.242V40.6965H48.0788V31.242H49.1683ZM54.1368 40.8443C53.4536 40.8443 52.8642 40.6935 52.3687 40.3918C51.8763 40.0872 51.4962 39.6624 51.2284 39.1177C50.9637 38.5699 50.8314 37.9328 50.8314 37.2065C50.8314 36.4802 50.9637 35.84 51.2284 35.286C51.4962 34.729 51.8686 34.295 52.3456 33.9842C52.8257 33.6703 53.3858 33.5133 54.026 33.5133C54.3953 33.5133 54.76 33.5748 55.1201 33.698C55.4802 33.8211 55.808 34.0211 56.1034 34.2981C56.3989 34.572 56.6343 34.9352 56.8097 35.3876C56.9852 35.84 57.0729 36.3971 57.0729 37.0587V37.5204H51.607V36.5786H55.9649C55.9649 36.1785 55.8849 35.8215 55.7249 35.5076C55.5679 35.1937 55.3432 34.9459 55.0509 34.7644C54.7616 34.5828 54.4199 34.492 54.026 34.492C53.5921 34.492 53.2166 34.5997 52.8996 34.8151C52.5857 35.0275 52.3441 35.3045 52.1748 35.6461C52.0055 35.9877 51.9209 36.354 51.9209 36.7448V37.3727C51.9209 37.9082 52.0132 38.3621 52.1979 38.7345C52.3856 39.1038 52.6457 39.3855 52.9781 39.5793C53.3104 39.7702 53.6967 39.8656 54.1368 39.8656C54.423 39.8656 54.6815 39.8256 54.9124 39.7455C55.1463 39.6624 55.3479 39.5393 55.5171 39.3762C55.6864 39.21 55.8172 39.0038 55.9095 38.7576L56.9621 39.0531C56.8513 39.4101 56.6651 39.724 56.4035 39.9948C56.1419 40.2626 55.8187 40.4719 55.434 40.6227C55.0493 40.7704 54.6169 40.8443 54.1368 40.8443ZM61.6109 40.8443C60.9461 40.8443 60.3737 40.6873 59.8935 40.3734C59.4134 40.0595 59.0441 39.627 58.7856 39.0761C58.5271 38.5252 58.3978 37.8959 58.3978 37.188C58.3978 36.4678 58.5301 35.8323 58.7948 35.2814C59.0626 34.7274 59.435 34.295 59.912 33.9842C60.3921 33.6703 60.9523 33.5133 61.5924 33.5133C62.091 33.5133 62.5403 33.6056 62.9404 33.7903C63.3405 33.9749 63.6683 34.2335 63.9237 34.5659C64.1792 34.8982 64.3377 35.286 64.3992 35.7292H63.3097C63.2266 35.4061 63.042 35.1198 62.7558 34.8705C62.4726 34.6182 62.091 34.492 61.6109 34.492C61.1862 34.492 60.8138 34.6028 60.4937 34.8244C60.1767 35.0429 59.9289 35.3522 59.7504 35.7523C59.575 36.1493 59.4873 36.6156 59.4873 37.1511C59.4873 37.6989 59.5735 38.1759 59.7458 38.5822C59.9212 38.9884 60.1675 39.3039 60.4845 39.5286C60.8045 39.7532 61.18 39.8656 61.6109 39.8656C61.894 39.8656 62.151 39.8163 62.3818 39.7178C62.6126 39.6194 62.8081 39.4778 62.9681 39.2931C63.1282 39.1085 63.242 38.8869 63.3097 38.6284H64.3992C64.3377 39.0469 64.1853 39.4239 63.9422 39.7594C63.7021 40.0918 63.3836 40.3565 62.9866 40.5534C62.5926 40.7473 62.1341 40.8443 61.6109 40.8443ZM69.0757 33.6056V34.5289H65.401V33.6056H69.0757ZM66.472 31.9068H67.5615V38.6653C67.5615 38.973 67.6061 39.2039 67.6954 39.3578C67.7877 39.5086 67.9047 39.6101 68.0462 39.6624C68.1909 39.7117 68.3432 39.7363 68.5033 39.7363C68.6233 39.7363 68.7218 39.7302 68.7987 39.7178C68.8757 39.7025 68.9372 39.6901 68.9834 39.6809L69.205 40.6596C69.1311 40.6873 69.028 40.715 68.8957 40.7427C68.7633 40.7735 68.5956 40.7889 68.3925 40.7889C68.0847 40.7889 67.7831 40.7227 67.4876 40.5904C67.1953 40.458 66.9521 40.2564 66.7582 39.9856C66.5674 39.7148 66.472 39.3731 66.472 38.9607V31.9068ZM74.5185 40.6965V31.242H77.7131C78.4549 31.242 79.0612 31.3759 79.532 31.6436C80.006 31.9083 80.3568 32.2668 80.5846 32.7193C80.8123 33.1717 80.9262 33.6764 80.9262 34.2335C80.9262 34.7905 80.8123 35.2968 80.5846 35.7523C80.3599 36.2078 80.0122 36.5709 79.5413 36.8418C79.0704 37.1095 78.4672 37.2434 77.7316 37.2434H75.4418V36.2278H77.6947C78.2025 36.2278 78.6103 36.1401 78.918 35.9646C79.2258 35.7892 79.4489 35.5522 79.5874 35.2537C79.729 34.9521 79.7998 34.612 79.7998 34.2335C79.7998 33.8549 79.729 33.5164 79.5874 33.2178C79.4489 32.9193 79.2243 32.6854 78.9134 32.5161C78.6026 32.3438 78.1902 32.2576 77.6762 32.2576H75.6634V40.6965H74.5185ZM85.5196 40.8443C84.8364 40.8443 84.247 40.6935 83.7515 40.3918C83.2591 40.0872 82.879 39.6624 82.6112 39.1177C82.3466 38.5699 82.2142 37.9328 82.2142 37.2065C82.2142 36.4802 82.3466 35.84 82.6112 35.286C82.879 34.729 83.2514 34.295 83.7284 33.9842C84.2085 33.6703 84.7687 33.5133 85.4088 33.5133C85.7781 33.5133 86.1428 33.5748 86.5029 33.698C86.863 33.8211 87.1908 34.0211 87.4862 34.2981C87.7817 34.572 88.0171 34.9352 88.1925 35.3876C88.368 35.84 88.4557 36.3971 88.4557 37.0587V37.5204H82.9898V36.5786H87.3477C87.3477 36.1785 87.2677 35.8215 87.1077 35.5076C86.9507 35.1937 86.726 34.9459 86.4337 34.7644C86.1444 34.5828 85.8028 34.492 85.4088 34.492C84.9749 34.492 84.5994 34.5997 84.2824 34.8151C83.9685 35.0275 83.7269 35.3045 83.5576 35.6461C83.3883 35.9877 83.3037 36.354 83.3037 36.7448V37.3727C83.3037 37.9082 83.396 38.3621 83.5807 38.7345C83.7684 39.1038 84.0285 39.3855 84.3609 39.5793C84.6933 39.7702 85.0795 39.8656 85.5196 39.8656C85.8058 39.8656 86.0644 39.8256 86.2952 39.7455C86.5291 39.6624 86.7307 39.5393 86.8999 39.3762C87.0692 39.21 87.2 39.0038 87.2923 38.7576L88.3449 39.0531C88.2341 39.4101 88.0479 39.724 87.7863 39.9948C87.5247 40.2626 87.2015 40.4719 86.8168 40.6227C86.4321 40.7704 85.9997 40.8443 85.5196 40.8443ZM90.113 40.6965V33.6056H91.1656V34.6766H91.2394C91.3687 34.3258 91.6026 34.0411 91.9411 33.8226C92.2797 33.6041 92.6613 33.4948 93.086 33.4948C93.166 33.4948 93.2661 33.4964 93.3861 33.4994C93.5061 33.5025 93.5969 33.5071 93.6585 33.5133V34.6212C93.6215 34.612 93.5369 34.5982 93.4046 34.5797C93.2753 34.5582 93.1383 34.5474 92.9937 34.5474C92.649 34.5474 92.3412 34.6197 92.0704 34.7644C91.8026 34.9059 91.5903 35.1029 91.4333 35.3553C91.2794 35.6046 91.2025 35.8892 91.2025 36.2093V40.6965H90.113ZM94.9499 40.6965V33.6056H96.0394V40.6965H94.9499ZM95.5039 32.4238C95.2915 32.4238 95.1084 32.3515 94.9545 32.2068C94.8037 32.0622 94.7283 31.8883 94.7283 31.6852C94.7283 31.482 94.8037 31.3082 94.9545 31.1635C95.1084 31.0189 95.2915 30.9465 95.5039 30.9465C95.7163 30.9465 95.8978 31.0189 96.0486 31.1635C96.2025 31.3082 96.2795 31.482 96.2795 31.6852C96.2795 31.8883 96.2025 32.0622 96.0486 32.2068C95.8978 32.3515 95.7163 32.4238 95.5039 32.4238ZM100.916 40.8443C100.275 40.8443 99.7137 40.6919 99.2305 40.3872C98.7504 40.0825 98.375 39.6563 98.1041 39.1085C97.8364 38.5606 97.7025 37.9205 97.7025 37.188C97.7025 36.4494 97.8364 35.8046 98.1041 35.2537C98.375 34.7028 98.7504 34.275 99.2305 33.9703C99.7137 33.6656 100.275 33.5133 100.916 33.5133C101.556 33.5133 102.116 33.6656 102.596 33.9703C103.079 34.275 103.455 34.7028 103.722 35.2537C103.993 35.8046 104.129 36.4494 104.129 37.188C104.129 37.9205 103.993 38.5606 103.722 39.1085C103.455 39.6563 103.079 40.0825 102.596 40.3872C102.116 40.6919 101.556 40.8443 100.916 40.8443ZM100.916 39.8656C101.402 39.8656 101.802 39.7409 102.116 39.4916C102.43 39.2423 102.662 38.9146 102.813 38.5083C102.964 38.1021 103.039 37.662 103.039 37.188C103.039 36.7141 102.964 36.2724 102.813 35.8631C102.662 35.4538 102.43 35.1229 102.116 34.8705C101.802 34.6182 101.402 34.492 100.916 34.492C100.429 34.492 100.029 34.6182 99.7153 34.8705C99.4014 35.1229 99.169 35.4538 99.0182 35.8631C98.8674 36.2724 98.792 36.7141 98.792 37.188C98.792 37.662 98.8674 38.1021 99.0182 38.5083C99.169 38.9146 99.4014 39.2423 99.7153 39.4916C100.029 39.7409 100.429 39.8656 100.916 39.8656ZM108.469 40.8443C107.878 40.8443 107.357 40.695 106.904 40.3965C106.452 40.0949 106.098 39.6701 105.842 39.1223C105.587 38.5714 105.459 37.9205 105.459 37.1695C105.459 36.4248 105.587 35.7784 105.842 35.2306C106.098 34.6828 106.453 34.2596 106.909 33.9611C107.364 33.6626 107.891 33.5133 108.488 33.5133C108.949 33.5133 109.314 33.5902 109.582 33.7441C109.853 33.8949 110.059 34.0673 110.2 34.2612C110.345 34.452 110.457 34.6089 110.537 34.732H110.63V31.242H111.719V40.6965H110.667V39.607H110.537C110.457 39.7363 110.344 39.8994 110.196 40.0964C110.048 40.2903 109.837 40.4642 109.563 40.6181C109.289 40.7689 108.925 40.8443 108.469 40.8443ZM108.617 39.8656C109.054 39.8656 109.423 39.7517 109.725 39.5239C110.027 39.2931 110.256 38.9746 110.413 38.5683C110.57 38.159 110.648 37.6866 110.648 37.1511C110.648 36.6217 110.571 36.1585 110.417 35.7615C110.264 35.3614 110.036 35.0506 109.734 34.829C109.433 34.6043 109.06 34.492 108.617 34.492C108.155 34.492 107.771 34.6105 107.463 34.8475C107.158 35.0814 106.929 35.3999 106.775 35.8031C106.624 36.2032 106.549 36.6525 106.549 37.1511C106.549 37.6558 106.626 38.1144 106.78 38.5268C106.937 38.9361 107.167 39.2623 107.472 39.5055C107.78 39.7455 108.162 39.8656 108.617 39.8656Z" fill="#2B3034"/>
<rect x="20.3" y="72.3" width="132.4" height="146.4" rx="3.7" fill="#FCFDFD" stroke="#AEB6CF" stroke-width="0.6"/>
<path opacity="0.7" d="M141.189 85.1402L137.359 89.4772L133.53 85.1402C133.228 84.7631 132.926 84.7552 132.625 85.1166C132.323 85.478 132.323 85.8316 132.625 86.1773L136.907 91.08C137.016 91.2372 137.167 91.3158 137.359 91.3158C137.552 91.3158 137.703 91.2372 137.812 91.08L142.094 86.1773C142.396 85.8316 142.396 85.478 142.094 85.1166C141.793 84.7552 141.491 84.7631 141.189 85.1402Z" fill="#2B3034"/>
<path d="M37.5406 85.6056C37.4852 85.1378 37.2605 84.7747 36.8666 84.5161C36.4726 84.2576 35.9894 84.1284 35.417 84.1284C34.9984 84.1284 34.6322 84.1961 34.3183 84.3315C34.0074 84.4669 33.7643 84.6531 33.5889 84.8901C33.4165 85.127 33.3303 85.3963 33.3303 85.698C33.3303 85.9503 33.3903 86.1673 33.5104 86.3489C33.6335 86.5274 33.7904 86.6766 33.9813 86.7967C34.1721 86.9136 34.3721 87.0106 34.5814 87.0875C34.7907 87.1614 34.983 87.2214 35.1585 87.2676L36.1187 87.5261C36.3649 87.5907 36.6388 87.68 36.9404 87.7938C37.2451 87.9077 37.5359 88.0631 37.8129 88.2601C38.093 88.454 38.3238 88.7033 38.5054 89.008C38.687 89.3127 38.7778 89.6866 38.7778 90.1298C38.7778 90.6407 38.6439 91.1023 38.3761 91.5147C38.1115 91.9271 37.7237 92.2549 37.2128 92.498C36.705 92.7412 36.0879 92.8627 35.3616 92.8627C34.6845 92.8627 34.0982 92.7535 33.6027 92.535C33.1103 92.3164 32.7225 92.0118 32.4394 91.6209C32.1593 91.23 32.0008 90.7761 31.9639 90.259H33.1457C33.1765 90.616 33.2965 90.9115 33.5058 91.1454C33.7181 91.3762 33.9859 91.5486 34.309 91.6624C34.6353 91.7732 34.9861 91.8286 35.3616 91.8286C35.7986 91.8286 36.191 91.7578 36.5388 91.6163C36.8866 91.4716 37.162 91.2716 37.3651 91.0161C37.5683 90.7576 37.6698 90.456 37.6698 90.1113C37.6698 89.7974 37.5821 89.5419 37.4067 89.345C37.2313 89.148 37.0004 88.988 36.7142 88.8649C36.428 88.7418 36.1187 88.634 35.7863 88.5417L34.6229 88.2093C33.8843 87.997 33.2996 87.6938 32.8687 87.2999C32.4378 86.9059 32.2224 86.3904 32.2224 85.7534C32.2224 85.224 32.3655 84.7623 32.6517 84.3684C32.941 83.9714 33.3288 83.6636 33.8151 83.4451C34.3044 83.2235 34.8507 83.1127 35.4539 83.1127C36.0633 83.1127 36.605 83.222 37.0789 83.4405C37.5529 83.6559 37.9283 83.9514 38.2053 84.3269C38.4854 84.7023 38.6331 85.1286 38.6485 85.6056H37.5406ZM43.4854 92.8443C42.8022 92.8443 42.2128 92.6935 41.7173 92.3918C41.2249 92.0872 40.8448 91.6624 40.577 91.1177C40.3124 90.5699 40.18 89.9328 40.18 89.2065C40.18 88.4802 40.3124 87.84 40.577 87.286C40.8448 86.729 41.2172 86.295 41.6942 85.9842C42.1743 85.6703 42.7345 85.5133 43.3746 85.5133C43.744 85.5133 44.1087 85.5748 44.4687 85.698C44.8288 85.8211 45.1566 86.0211 45.452 86.2981C45.7475 86.572 45.9829 86.9352 46.1584 87.3876C46.3338 87.84 46.4215 88.3971 46.4215 89.0587V89.5204H40.9556V88.5786H45.3136C45.3136 88.1785 45.2335 87.8215 45.0735 87.5076C44.9165 87.1937 44.6919 86.9459 44.3995 86.7644C44.1102 86.5828 43.7686 86.492 43.3746 86.492C42.9407 86.492 42.5652 86.5997 42.2482 86.8151C41.9343 87.0275 41.6927 87.3045 41.5234 87.6461C41.3542 87.9877 41.2695 88.354 41.2695 88.7448V89.3727C41.2695 89.9082 41.3618 90.3621 41.5465 90.7345C41.7342 91.1038 41.9943 91.3855 42.3267 91.5793C42.6591 91.7702 43.0453 91.8656 43.4854 91.8656C43.7717 91.8656 44.0302 91.8256 44.261 91.7455C44.4949 91.6624 44.6965 91.5393 44.8658 91.3762C45.035 91.21 45.1658 91.0038 45.2582 90.7576L46.3107 91.0531C46.1999 91.4101 46.0137 91.724 45.7521 91.9948C45.4905 92.2626 45.1674 92.4719 44.7827 92.6227C44.398 92.7704 43.9655 92.8443 43.4854 92.8443ZM49.1683 83.242V92.6965H48.0788V83.242H49.1683ZM54.1368 92.8443C53.4536 92.8443 52.8642 92.6935 52.3687 92.3918C51.8763 92.0872 51.4962 91.6624 51.2284 91.1177C50.9637 90.5699 50.8314 89.9328 50.8314 89.2065C50.8314 88.4802 50.9637 87.84 51.2284 87.286C51.4962 86.729 51.8686 86.295 52.3456 85.9842C52.8257 85.6703 53.3858 85.5133 54.026 85.5133C54.3953 85.5133 54.76 85.5748 55.1201 85.698C55.4802 85.8211 55.808 86.0211 56.1034 86.2981C56.3989 86.572 56.6343 86.9352 56.8097 87.3876C56.9852 87.84 57.0729 88.3971 57.0729 89.0587V89.5204H51.607V88.5786H55.9649C55.9649 88.1785 55.8849 87.8215 55.7249 87.5076C55.5679 87.1937 55.3432 86.9459 55.0509 86.7644C54.7616 86.5828 54.4199 86.492 54.026 86.492C53.5921 86.492 53.2166 86.5997 52.8996 86.8151C52.5857 87.0275 52.3441 87.3045 52.1748 87.6461C52.0055 87.9877 51.9209 88.354 51.9209 88.7448V89.3727C51.9209 89.9082 52.0132 90.3621 52.1979 90.7345C52.3856 91.1038 52.6457 91.3855 52.9781 91.5793C53.3104 91.7702 53.6967 91.8656 54.1368 91.8656C54.423 91.8656 54.6815 91.8256 54.9124 91.7455C55.1463 91.6624 55.3479 91.5393 55.5171 91.3762C55.6864 91.21 55.8172 91.0038 55.9095 90.7576L56.9621 91.0531C56.8513 91.4101 56.6651 91.724 56.4035 91.9948C56.1419 92.2626 55.8187 92.4719 55.434 92.6227C55.0493 92.7704 54.6169 92.8443 54.1368 92.8443ZM61.6109 92.8443C60.9461 92.8443 60.3737 92.6873 59.8935 92.3734C59.4134 92.0595 59.0441 91.627 58.7856 91.0761C58.5271 90.5252 58.3978 89.8959 58.3978 89.188C58.3978 88.4678 58.5301 87.8323 58.7948 87.2814C59.0626 86.7274 59.435 86.295 59.912 85.9842C60.3921 85.6703 60.9523 85.5133 61.5924 85.5133C62.091 85.5133 62.5403 85.6056 62.9404 85.7903C63.3405 85.9749 63.6683 86.2335 63.9237 86.5659C64.1792 86.8982 64.3377 87.286 64.3992 87.7292H63.3097C63.2266 87.4061 63.042 87.1198 62.7558 86.8705C62.4726 86.6182 62.091 86.492 61.6109 86.492C61.1862 86.492 60.8138 86.6028 60.4937 86.8244C60.1767 87.0429 59.9289 87.3522 59.7504 87.7523C59.575 88.1493 59.4873 88.6156 59.4873 89.1511C59.4873 89.6989 59.5735 90.1759 59.7458 90.5822C59.9212 90.9884 60.1675 91.3039 60.4845 91.5286C60.8045 91.7532 61.18 91.8656 61.6109 91.8656C61.894 91.8656 62.151 91.8163 62.3818 91.7178C62.6126 91.6194 62.8081 91.4778 62.9681 91.2931C63.1282 91.1085 63.242 90.8869 63.3097 90.6284H64.3992C64.3377 91.0469 64.1853 91.4239 63.9422 91.7594C63.7021 92.0918 63.3836 92.3565 62.9866 92.5534C62.5926 92.7473 62.1341 92.8443 61.6109 92.8443ZM69.0757 85.6056V86.5289H65.401V85.6056H69.0757ZM66.472 83.9068H67.5615V90.6653C67.5615 90.973 67.6061 91.2039 67.6954 91.3578C67.7877 91.5086 67.9047 91.6101 68.0462 91.6624C68.1909 91.7117 68.3432 91.7363 68.5033 91.7363C68.6233 91.7363 68.7218 91.7302 68.7987 91.7178C68.8757 91.7025 68.9372 91.6901 68.9834 91.6809L69.205 92.6596C69.1311 92.6873 69.028 92.715 68.8957 92.7427C68.7633 92.7735 68.5956 92.7889 68.3925 92.7889C68.0847 92.7889 67.7831 92.7227 67.4876 92.5904C67.1953 92.458 66.9521 92.2564 66.7582 91.9856C66.5674 91.7148 66.472 91.3731 66.472 90.9607V83.9068ZM74.5185 92.6965V83.242H77.7131C78.4549 83.242 79.0612 83.3759 79.532 83.6436C80.006 83.9083 80.3568 84.2668 80.5846 84.7193C80.8123 85.1717 80.9262 85.6764 80.9262 86.2335C80.9262 86.7905 80.8123 87.2968 80.5846 87.7523C80.3599 88.2078 80.0122 88.5709 79.5413 88.8418C79.0704 89.1095 78.4672 89.2434 77.7316 89.2434H75.4418V88.2278H77.6947C78.2025 88.2278 78.6103 88.1401 78.918 87.9646C79.2258 87.7892 79.4489 87.5522 79.5874 87.2537C79.729 86.9521 79.7998 86.612 79.7998 86.2335C79.7998 85.8549 79.729 85.5164 79.5874 85.2178C79.4489 84.9193 79.2243 84.6854 78.9134 84.5161C78.6026 84.3438 78.1902 84.2576 77.6762 84.2576H75.6634V92.6965H74.5185ZM85.5196 92.8443C84.8364 92.8443 84.247 92.6935 83.7515 92.3918C83.2591 92.0872 82.879 91.6624 82.6112 91.1177C82.3466 90.5699 82.2142 89.9328 82.2142 89.2065C82.2142 88.4802 82.3466 87.84 82.6112 87.286C82.879 86.729 83.2514 86.295 83.7284 85.9842C84.2085 85.6703 84.7687 85.5133 85.4088 85.5133C85.7781 85.5133 86.1428 85.5748 86.5029 85.698C86.863 85.8211 87.1908 86.0211 87.4862 86.2981C87.7817 86.572 88.0171 86.9352 88.1925 87.3876C88.368 87.84 88.4557 88.3971 88.4557 89.0587V89.5204H82.9898V88.5786H87.3477C87.3477 88.1785 87.2677 87.8215 87.1077 87.5076C86.9507 87.1937 86.726 86.9459 86.4337 86.7644C86.1444 86.5828 85.8028 86.492 85.4088 86.492C84.9749 86.492 84.5994 86.5997 84.2824 86.8151C83.9685 87.0275 83.7269 87.3045 83.5576 87.6461C83.3883 87.9877 83.3037 88.354 83.3037 88.7448V89.3727C83.3037 89.9082 83.396 90.3621 83.5807 90.7345C83.7684 91.1038 84.0285 91.3855 84.3609 91.5793C84.6933 91.7702 85.0795 91.8656 85.5196 91.8656C85.8058 91.8656 86.0644 91.8256 86.2952 91.7455C86.5291 91.6624 86.7307 91.5393 86.8999 91.3762C87.0692 91.21 87.2 91.0038 87.2923 90.7576L88.3449 91.0531C88.2341 91.4101 88.0479 91.724 87.7863 91.9948C87.5247 92.2626 87.2015 92.4719 86.8168 92.6227C86.4321 92.7704 85.9997 92.8443 85.5196 92.8443ZM90.113 92.6965V85.6056H91.1656V86.6766H91.2394C91.3687 86.3258 91.6026 86.0411 91.9411 85.8226C92.2797 85.6041 92.6613 85.4948 93.086 85.4948C93.166 85.4948 93.2661 85.4964 93.3861 85.4994C93.5061 85.5025 93.5969 85.5071 93.6585 85.5133V86.6212C93.6215 86.612 93.5369 86.5982 93.4046 86.5797C93.2753 86.5582 93.1383 86.5474 92.9937 86.5474C92.649 86.5474 92.3412 86.6197 92.0704 86.7644C91.8026 86.9059 91.5903 87.1029 91.4333 87.3553C91.2794 87.6046 91.2025 87.8892 91.2025 88.2093V92.6965H90.113ZM94.9499 92.6965V85.6056H96.0394V92.6965H94.9499ZM95.5039 84.4238C95.2915 84.4238 95.1084 84.3515 94.9545 84.2068C94.8037 84.0622 94.7283 83.8883 94.7283 83.6852C94.7283 83.482 94.8037 83.3082 94.9545 83.1635C95.1084 83.0189 95.2915 82.9465 95.5039 82.9465C95.7163 82.9465 95.8978 83.0189 96.0486 83.1635C96.2025 83.3082 96.2795 83.482 96.2795 83.6852C96.2795 83.8883 96.2025 84.0622 96.0486 84.2068C95.8978 84.3515 95.7163 84.4238 95.5039 84.4238ZM100.916 92.8443C100.275 92.8443 99.7137 92.6919 99.2305 92.3872C98.7504 92.0825 98.375 91.6563 98.1041 91.1085C97.8364 90.5606 97.7025 89.9205 97.7025 89.188C97.7025 88.4494 97.8364 87.8046 98.1041 87.2537C98.375 86.7028 98.7504 86.275 99.2305 85.9703C99.7137 85.6656 100.275 85.5133 100.916 85.5133C101.556 85.5133 102.116 85.6656 102.596 85.9703C103.079 86.275 103.455 86.7028 103.722 87.2537C103.993 87.8046 104.129 88.4494 104.129 89.188C104.129 89.9205 103.993 90.5606 103.722 91.1085C103.455 91.6563 103.079 92.0825 102.596 92.3872C102.116 92.6919 101.556 92.8443 100.916 92.8443ZM100.916 91.8656C101.402 91.8656 101.802 91.7409 102.116 91.4916C102.43 91.2423 102.662 90.9146 102.813 90.5083C102.964 90.1021 103.039 89.662 103.039 89.188C103.039 88.7141 102.964 88.2724 102.813 87.8631C102.662 87.4538 102.43 87.1229 102.116 86.8705C101.802 86.6182 101.402 86.492 100.916 86.492C100.429 86.492 100.029 86.6182 99.7153 86.8705C99.4014 87.1229 99.169 87.4538 99.0182 87.8631C98.8674 88.2724 98.792 88.7141 98.792 89.188C98.792 89.662 98.8674 90.1021 99.0182 90.5083C99.169 90.9146 99.4014 91.2423 99.7153 91.4916C100.029 91.7409 100.429 91.8656 100.916 91.8656ZM108.469 92.8443C107.878 92.8443 107.357 92.695 106.904 92.3965C106.452 92.0949 106.098 91.6701 105.842 91.1223C105.587 90.5714 105.459 89.9205 105.459 89.1695C105.459 88.4248 105.587 87.7784 105.842 87.2306C106.098 86.6828 106.453 86.2596 106.909 85.9611C107.364 85.6626 107.891 85.5133 108.488 85.5133C108.949 85.5133 109.314 85.5902 109.582 85.7441C109.853 85.8949 110.059 86.0673 110.2 86.2612C110.345 86.452 110.457 86.6089 110.537 86.732H110.63V83.242H111.719V92.6965H110.667V91.607H110.537C110.457 91.7363 110.344 91.8994 110.196 92.0964C110.048 92.2903 109.837 92.4642 109.563 92.6181C109.289 92.7689 108.925 92.8443 108.469 92.8443ZM108.617 91.8656C109.054 91.8656 109.423 91.7517 109.725 91.5239C110.027 91.2931 110.256 90.9746 110.413 90.5683C110.57 90.159 110.648 89.6866 110.648 89.1511C110.648 88.6217 110.571 88.1585 110.417 87.7615C110.264 87.3614 110.036 87.0506 109.734 86.829C109.433 86.6043 109.06 86.492 108.617 86.492C108.155 86.492 107.771 86.6105 107.463 86.8475C107.158 87.0814 106.929 87.3999 106.775 87.8031C106.624 88.2032 106.549 88.6525 106.549 89.1511C106.549 89.6558 106.626 90.1144 106.78 90.5268C106.937 90.9361 107.167 91.2623 107.472 91.5055C107.78 91.7455 108.162 91.8656 108.617 91.8656Z" fill="#2B3034"/>
<path d="M39.6216 116.197H38.4767C38.409 115.867 38.2905 115.578 38.1213 115.329C37.9551 115.08 37.7519 114.87 37.5119 114.701C37.2749 114.529 37.0118 114.399 36.7225 114.313C36.4332 114.227 36.1316 114.184 35.8176 114.184C35.2452 114.184 34.7266 114.329 34.2619 114.618C33.8002 114.907 33.4325 115.333 33.1585 115.897C32.8877 116.46 32.7523 117.151 32.7523 117.97C32.7523 118.788 32.8877 119.479 33.1585 120.042C33.4325 120.606 33.8002 121.032 34.2619 121.321C34.7266 121.61 35.2452 121.755 35.8176 121.755C36.1316 121.755 36.4332 121.712 36.7225 121.626C37.0118 121.54 37.2749 121.412 37.5119 121.243C37.7519 121.07 37.9551 120.859 38.1213 120.61C38.2905 120.358 38.409 120.068 38.4767 119.742H39.6216C39.5354 120.225 39.3785 120.658 39.1507 121.039C38.923 121.421 38.6398 121.746 38.3013 122.014C37.9628 122.278 37.5827 122.48 37.161 122.618C36.7425 122.757 36.2947 122.826 35.8176 122.826C35.0113 122.826 34.2942 122.629 33.6664 122.235C33.0385 121.841 32.5446 121.281 32.1845 120.555C31.8244 119.828 31.6443 118.967 31.6443 117.97C31.6443 116.972 31.8244 116.111 32.1845 115.384C32.5446 114.658 33.0385 114.098 33.6664 113.704C34.2942 113.31 35.0113 113.113 35.8176 113.113C36.2947 113.113 36.7425 113.182 37.161 113.321C37.5827 113.459 37.9628 113.662 38.3013 113.93C38.6398 114.195 38.923 114.518 39.1507 114.9C39.3785 115.278 39.5354 115.711 39.6216 116.197ZM45.7927 119.798V115.606H46.8822V122.697H45.7927V121.496H45.7188C45.5526 121.857 45.2941 122.163 44.9433 122.415C44.5924 122.664 44.1492 122.789 43.6137 122.789C43.1705 122.789 42.7766 122.692 42.4319 122.498C42.0872 122.301 41.8164 122.006 41.6194 121.612C41.4224 121.215 41.3239 120.715 41.3239 120.112V115.606H42.4134V120.038C42.4134 120.555 42.5581 120.967 42.8474 121.275C43.1398 121.583 43.5122 121.737 43.9646 121.737C44.2354 121.737 44.5108 121.667 44.7909 121.529C45.0741 121.39 45.311 121.178 45.5019 120.892C45.6957 120.606 45.7927 120.241 45.7927 119.798ZM48.8777 122.697V115.606H49.9302V116.677H50.0041C50.1333 116.326 50.3672 116.041 50.7058 115.823C51.0443 115.604 51.4259 115.495 51.8507 115.495C51.9307 115.495 52.0307 115.497 52.1507 115.5C52.2708 115.503 52.3616 115.507 52.4231 115.514V116.621C52.3862 116.612 52.3015 116.598 52.1692 116.58C52.0399 116.558 51.903 116.548 51.7583 116.548C51.4136 116.548 51.1059 116.62 50.835 116.765C50.5673 116.906 50.3549 117.103 50.198 117.356C50.0441 117.605 49.9671 117.889 49.9671 118.21V122.697H48.8777ZM53.7146 122.697V115.606H54.7671V116.677H54.841C54.9702 116.326 55.2041 116.041 55.5427 115.823C55.8812 115.604 56.2629 115.495 56.6876 115.495C56.7676 115.495 56.8676 115.497 56.9876 115.5C57.1077 115.503 57.1985 115.507 57.26 115.514V116.621C57.2231 116.612 57.1385 116.598 57.0061 116.58C56.8769 116.558 56.7399 116.548 56.5952 116.548C56.2506 116.548 55.9428 116.62 55.672 116.765C55.4042 116.906 55.1918 117.103 55.0349 117.356C54.881 117.605 54.8041 117.889 54.8041 118.21V122.697H53.7146ZM61.3087 122.845C60.6254 122.845 60.0361 122.694 59.5406 122.392C59.0481 122.087 58.668 121.663 58.4003 121.118C58.1356 120.57 58.0033 119.933 58.0033 119.207C58.0033 118.48 58.1356 117.84 58.4003 117.286C58.668 116.729 59.0404 116.295 59.5175 115.984C59.9976 115.67 60.5577 115.514 61.1979 115.514C61.5672 115.514 61.9319 115.575 62.292 115.698C62.6521 115.821 62.9798 116.021 63.2753 116.298C63.5707 116.572 63.8062 116.935 63.9816 117.388C64.157 117.84 64.2448 118.397 64.2448 119.059V119.521H58.7788V118.579H63.1368C63.1368 118.179 63.0568 117.822 62.8967 117.508C62.7398 117.194 62.5151 116.946 62.2227 116.765C61.9334 116.583 61.5918 116.492 61.1979 116.492C60.7639 116.492 60.3885 116.6 60.0715 116.815C59.7575 117.028 59.5159 117.305 59.3467 117.646C59.1774 117.988 59.0928 118.354 59.0928 118.745V119.373C59.0928 119.908 59.1851 120.362 59.3698 120.735C59.5575 121.104 59.8175 121.386 60.1499 121.58C60.4823 121.77 60.8686 121.866 61.3087 121.866C61.5949 121.866 61.8534 121.826 62.0842 121.746C62.3181 121.663 62.5197 121.54 62.689 121.376C62.8583 121.21 62.9891 121.004 63.0814 120.758L64.134 121.053C64.0232 121.41 63.837 121.724 63.5754 121.995C63.3138 122.263 62.9906 122.472 62.6059 122.623C62.2212 122.771 61.7888 122.845 61.3087 122.845ZM66.9916 118.431V122.697H65.9021V115.606H66.9546V116.714H67.047C67.2131 116.354 67.4655 116.064 67.8041 115.846C68.1426 115.624 68.5796 115.514 69.1151 115.514C69.5952 115.514 70.0153 115.612 70.3754 115.809C70.7355 116.003 71.0156 116.298 71.2156 116.695C71.4157 117.089 71.5157 117.588 71.5157 118.191V122.697H70.4262V118.265C70.4262 117.708 70.2816 117.274 69.9923 116.963C69.703 116.649 69.3059 116.492 68.8012 116.492C68.4534 116.492 68.1426 116.568 67.8687 116.718C67.5979 116.869 67.384 117.089 67.227 117.379C67.07 117.668 66.9916 118.019 66.9916 118.431ZM76.5904 115.606V116.529H72.9156V115.606H76.5904ZM73.9867 113.907H75.0762V120.666C75.0762 120.973 75.1208 121.204 75.21 121.358C75.3024 121.509 75.4193 121.61 75.5609 121.663C75.7055 121.712 75.8579 121.737 76.0179 121.737C76.138 121.737 76.2364 121.73 76.3134 121.718C76.3903 121.703 76.4519 121.69 76.498 121.681L76.7196 122.66C76.6458 122.688 76.5427 122.715 76.4103 122.743C76.278 122.774 76.1103 122.789 75.9071 122.789C75.5994 122.789 75.2978 122.723 75.0023 122.591C74.7099 122.458 74.4668 122.257 74.2729 121.986C74.0821 121.715 73.9867 121.373 73.9867 120.961V113.907ZM82.0332 113.242H83.3997L86.6127 121.09H86.7235L89.9366 113.242H91.3031V122.697H90.2321V115.514H90.1397L87.1852 122.697H86.1511L83.1965 115.514H83.1042V122.697H82.0332V113.242ZM96.3316 122.845C95.6914 122.845 95.1298 122.692 94.6466 122.387C94.1664 122.083 93.791 121.657 93.5201 121.109C93.2524 120.561 93.1185 119.921 93.1185 119.188C93.1185 118.45 93.2524 117.805 93.5201 117.254C93.791 116.703 94.1664 116.275 94.6466 115.971C95.1298 115.666 95.6914 115.514 96.3316 115.514C96.9717 115.514 97.5319 115.666 98.012 115.971C98.4952 116.275 98.8706 116.703 99.1384 117.254C99.4092 117.805 99.5446 118.45 99.5446 119.188C99.5446 119.921 99.4092 120.561 99.1384 121.109C98.8706 121.657 98.4952 122.083 98.012 122.387C97.5319 122.692 96.9717 122.845 96.3316 122.845ZM96.3316 121.866C96.8178 121.866 97.2179 121.741 97.5319 121.492C97.8458 121.243 98.0781 120.915 98.2289 120.509C98.3798 120.102 98.4552 119.662 98.4552 119.188C98.4552 118.714 98.3798 118.273 98.2289 117.863C98.0781 117.454 97.8458 117.123 97.5319 116.871C97.2179 116.618 96.8178 116.492 96.3316 116.492C95.8453 116.492 95.4452 116.618 95.1313 116.871C94.8174 117.123 94.585 117.454 94.4342 117.863C94.2834 118.273 94.208 118.714 94.208 119.188C94.208 119.662 94.2834 120.102 94.4342 120.509C94.585 120.915 94.8174 121.243 95.1313 121.492C95.4452 121.741 95.8453 121.866 96.3316 121.866ZM102.297 118.431V122.697H101.208V115.606H102.26V116.714H102.353C102.519 116.354 102.771 116.064 103.11 115.846C103.448 115.624 103.885 115.514 104.421 115.514C104.901 115.514 105.321 115.612 105.681 115.809C106.041 116.003 106.321 116.298 106.521 116.695C106.721 117.089 106.821 117.588 106.821 118.191V122.697H105.732V118.265C105.732 117.708 105.587 117.274 105.298 116.963C105.009 116.649 104.612 116.492 104.107 116.492C103.759 116.492 103.448 116.568 103.174 116.718C102.904 116.869 102.69 117.089 102.533 117.379C102.376 117.668 102.297 118.019 102.297 118.431ZM111.896 115.606V116.529H108.221V115.606H111.896ZM109.292 113.907H110.382V120.666C110.382 120.973 110.426 121.204 110.516 121.358C110.608 121.509 110.725 121.61 110.867 121.663C111.011 121.712 111.164 121.737 111.324 121.737C111.444 121.737 111.542 121.73 111.619 121.718C111.696 121.703 111.758 121.69 111.804 121.681L112.025 122.66C111.951 122.688 111.848 122.715 111.716 122.743C111.584 122.774 111.416 122.789 111.213 122.789C110.905 122.789 110.603 122.723 110.308 122.591C110.016 122.458 109.772 122.257 109.579 121.986C109.388 121.715 109.292 121.373 109.292 120.961V113.907ZM114.777 118.431V122.697H113.687V113.242H114.777V116.714H114.869C115.035 116.348 115.285 116.057 115.617 115.841C115.952 115.623 116.399 115.514 116.956 115.514C117.439 115.514 117.862 115.61 118.225 115.804C118.588 115.995 118.87 116.289 119.07 116.686C119.273 117.08 119.375 117.582 119.375 118.191V122.697H118.285V118.265C118.285 117.702 118.139 117.266 117.847 116.958C117.557 116.648 117.156 116.492 116.642 116.492C116.285 116.492 115.965 116.568 115.682 116.718C115.401 116.869 115.18 117.089 115.017 117.379C114.857 117.668 114.777 118.019 114.777 118.431Z" fill="#2B3034"/>
<path d="M39.5108 141.242V150.697H38.4029L33.2509 143.273H33.1585V150.697H32.0137V141.242H33.1216L38.2921 148.684H38.3844V141.242H39.5108ZM44.5347 150.845C43.8945 150.845 43.3329 150.692 42.8497 150.387C42.3696 150.083 41.9941 149.657 41.7233 149.109C41.4555 148.561 41.3216 147.921 41.3216 147.188C41.3216 146.45 41.4555 145.805 41.7233 145.254C41.9941 144.703 42.3696 144.275 42.8497 143.971C43.3329 143.666 43.8945 143.514 44.5347 143.514C45.1749 143.514 45.735 143.666 46.2151 143.971C46.6983 144.275 47.0738 144.703 47.3415 145.254C47.6124 145.805 47.7478 146.45 47.7478 147.188C47.7478 147.921 47.6124 148.561 47.3415 149.109C47.0738 149.657 46.6983 150.083 46.2151 150.387C45.735 150.692 45.1749 150.845 44.5347 150.845ZM44.5347 149.866C45.021 149.866 45.4211 149.741 45.735 149.492C46.0489 149.243 46.2813 148.915 46.4321 148.509C46.5829 148.102 46.6583 147.662 46.6583 147.188C46.6583 146.714 46.5829 146.273 46.4321 145.863C46.2813 145.454 46.0489 145.123 45.735 144.871C45.4211 144.618 45.021 144.492 44.5347 144.492C44.0484 144.492 43.6483 144.618 43.3344 144.871C43.0205 145.123 42.7881 145.454 42.6373 145.863C42.4865 146.273 42.4111 146.714 42.4111 147.188C42.4111 147.662 42.4865 148.102 42.6373 148.509C42.7881 148.915 43.0205 149.243 43.3344 149.492C43.6483 149.741 44.0484 149.866 44.5347 149.866ZM54.9552 143.606L52.3331 150.697H51.2251L48.603 143.606H49.7848L51.7422 149.256H51.816L53.7734 143.606H54.9552ZM57.8105 141.242V142.073C57.8105 142.326 57.7644 142.595 57.672 142.881C57.5828 143.164 57.4505 143.44 57.275 143.707C57.1027 143.972 56.8934 144.203 56.6472 144.4L56.0563 143.92C56.2502 143.643 56.4179 143.355 56.5595 143.057C56.7041 142.755 56.7764 142.433 56.7764 142.092V141.242H57.8105ZM59.2313 150.697V149.866L62.352 146.45C62.7182 146.05 63.0198 145.702 63.2568 145.406C63.4938 145.108 63.6692 144.828 63.7831 144.566C63.9001 144.301 63.9585 144.024 63.9585 143.735C63.9585 143.403 63.8785 143.115 63.7185 142.872C63.5615 142.629 63.3461 142.441 63.0722 142.309C62.7983 142.176 62.4905 142.11 62.1489 142.11C61.7857 142.11 61.4687 142.186 61.1979 142.336C60.9301 142.484 60.7224 142.692 60.5747 142.96C60.43 143.227 60.3577 143.541 60.3577 143.901H59.2682C59.2682 143.347 59.3959 142.861 59.6514 142.443C59.9068 142.024 60.2546 141.698 60.6947 141.464C61.1379 141.23 61.6349 141.113 62.1858 141.113C62.7398 141.113 63.2307 141.23 63.6585 141.464C64.0863 141.698 64.4217 142.013 64.6649 142.41C64.908 142.807 65.0296 143.249 65.0296 143.735C65.0296 144.083 64.9665 144.423 64.8403 144.755C64.7172 145.085 64.5017 145.452 64.194 145.859C63.8893 146.262 63.4661 146.754 62.9244 147.336L60.8009 149.607V149.681H65.1957V150.697H59.2313ZM66.6776 148.758V147.816L70.8325 141.242H71.5157V142.701H71.0541L67.9149 147.668V147.742H73.51V148.758H66.6776ZM71.1279 150.697V148.472V148.033V141.242H72.2174V150.697H71.1279Z" fill="#2B3034"/>
<path d="M39.9909 173.97C39.9909 174.967 39.8109 175.828 39.4508 176.555C39.0907 177.281 38.5968 177.841 37.9689 178.235C37.3411 178.629 36.624 178.826 35.8176 178.826C35.0113 178.826 34.2942 178.629 33.6664 178.235C33.0385 177.841 32.5446 177.281 32.1845 176.555C31.8244 175.828 31.6443 174.967 31.6443 173.97C31.6443 172.972 31.8244 172.111 32.1845 171.384C32.5446 170.658 33.0385 170.098 33.6664 169.704C34.2942 169.31 35.0113 169.113 35.8176 169.113C36.624 169.113 37.3411 169.31 37.9689 169.704C38.5968 170.098 39.0907 170.658 39.4508 171.384C39.8109 172.111 39.9909 172.972 39.9909 173.97ZM38.883 173.97C38.883 173.151 38.746 172.46 38.4721 171.897C38.2013 171.333 37.8335 170.907 37.3688 170.618C36.9071 170.329 36.3901 170.184 35.8176 170.184C35.2452 170.184 34.7266 170.329 34.2619 170.618C33.8002 170.907 33.4325 171.333 33.1585 171.897C32.8877 172.46 32.7523 173.151 32.7523 173.97C32.7523 174.788 32.8877 175.479 33.1585 176.042C33.4325 176.606 33.8002 177.032 34.2619 177.321C34.7266 177.61 35.2452 177.755 35.8176 177.755C36.3901 177.755 36.9071 177.61 37.3688 177.321C37.8335 177.032 38.2013 176.606 38.4721 176.042C38.746 175.479 38.883 174.788 38.883 173.97ZM44.649 178.845C43.9842 178.845 43.4117 178.688 42.9316 178.374C42.4515 178.06 42.0822 177.627 41.8237 177.076C41.5652 176.525 41.4359 175.896 41.4359 175.188C41.4359 174.468 41.5682 173.833 41.8329 173.282C42.1007 172.728 42.4731 172.295 42.9501 171.984C43.4302 171.67 43.9903 171.514 44.6305 171.514C45.1291 171.514 45.5784 171.606 45.9785 171.791C46.3786 171.975 46.7064 172.234 46.9618 172.566C47.2173 172.898 47.3758 173.286 47.4373 173.729H46.3478C46.2647 173.406 46.0801 173.12 45.7938 172.871C45.5107 172.618 45.1291 172.492 44.649 172.492C44.2242 172.492 43.8518 172.603 43.5318 172.825C43.2148 173.043 42.967 173.352 42.7885 173.753C42.6131 174.15 42.5254 174.616 42.5254 175.151C42.5254 175.699 42.6116 176.176 42.7839 176.582C42.9593 176.989 43.2055 177.304 43.5225 177.529C43.8426 177.753 44.2181 177.866 44.649 177.866C44.9321 177.866 45.1891 177.817 45.4199 177.718C45.6507 177.62 45.8462 177.478 46.0062 177.293C46.1662 177.109 46.2801 176.887 46.3478 176.629H47.4373C47.3758 177.047 47.2234 177.424 46.9803 177.76C46.7402 178.092 46.4217 178.357 46.0247 178.554C45.6307 178.748 45.1722 178.845 44.649 178.845ZM52.1138 171.606V172.529H48.4391V171.606H52.1138ZM49.5101 169.907H50.5996V176.666C50.5996 176.973 50.6442 177.204 50.7335 177.358C50.8258 177.509 50.9428 177.61 51.0843 177.663C51.229 177.712 51.3813 177.737 51.5414 177.737C51.6614 177.737 51.7599 177.73 51.8368 177.718C51.9138 177.703 51.9753 177.69 52.0215 177.681L52.2431 178.66C52.1692 178.688 52.0661 178.715 51.9338 178.743C51.8014 178.774 51.6337 178.789 51.4306 178.789C51.1228 178.789 50.8212 178.723 50.5257 178.591C50.2334 178.458 49.9902 178.257 49.7963 177.986C49.6055 177.715 49.5101 177.373 49.5101 176.961V169.907ZM55.081 169.242V170.073C55.081 170.326 55.0349 170.595 54.9425 170.881C54.8533 171.164 54.721 171.44 54.5455 171.707C54.3732 171.972 54.1639 172.203 53.9177 172.4L53.3268 171.92C53.5207 171.643 53.6884 171.355 53.83 171.057C53.9746 170.755 54.047 170.433 54.047 170.092V169.242H55.081ZM56.5018 178.697V177.866L59.6225 174.45C59.9887 174.05 60.2904 173.702 60.5273 173.406C60.7643 173.108 60.9397 172.828 61.0536 172.566C61.1706 172.301 61.229 172.024 61.229 171.735C61.229 171.403 61.149 171.115 60.989 170.872C60.832 170.629 60.6166 170.441 60.3427 170.309C60.0688 170.176 59.761 170.11 59.4194 170.11C59.0562 170.11 58.7392 170.186 58.4684 170.336C58.2006 170.484 57.9929 170.692 57.8452 170.96C57.7005 171.227 57.6282 171.541 57.6282 171.901H56.5387C56.5387 171.347 56.6664 170.861 56.9219 170.443C57.1773 170.024 57.5251 169.698 57.9652 169.464C58.4084 169.23 58.9054 169.113 59.4563 169.113C60.0103 169.113 60.5012 169.23 60.929 169.464C61.3568 169.698 61.6922 170.013 61.9354 170.41C62.1785 170.807 62.3001 171.249 62.3001 171.735C62.3001 172.083 62.237 172.423 62.1108 172.755C61.9877 173.085 61.7722 173.452 61.4645 173.859C61.1598 174.262 60.7366 174.754 60.1949 175.336L58.0714 177.607V177.681H62.4663V178.697H56.5018ZM63.9481 176.758V175.816L68.103 169.242H68.7862V170.701H68.3246L65.1854 175.668V175.742H70.7805V176.758H63.9481ZM68.3984 178.697V176.472V176.033V169.242H69.4879V178.697H68.3984Z" fill="#2B3034"/>
<path d="M37.1841 199.606C37.1287 199.138 36.904 198.775 36.5101 198.516C36.1162 198.258 35.633 198.129 35.0605 198.129C34.642 198.129 34.2757 198.196 33.9618 198.332C33.651 198.467 33.4078 198.653 33.2324 198.89C33.0601 199.127 32.9739 199.397 32.9739 199.698C32.9739 199.951 33.0339 200.168 33.1539 200.349C33.277 200.528 33.434 200.677 33.6248 200.797C33.8156 200.914 34.0157 201.011 34.225 201.088C34.4342 201.162 34.6266 201.222 34.802 201.268L35.7622 201.526C36.0085 201.591 36.2824 201.68 36.584 201.794C36.8887 201.908 37.1795 202.063 37.4565 202.26C37.7366 202.454 37.9674 202.704 38.149 203.008C38.3305 203.313 38.4213 203.687 38.4213 204.13C38.4213 204.641 38.2875 205.103 38.0197 205.515C37.755 205.927 37.3672 206.255 36.8563 206.498C36.3485 206.741 35.7315 206.863 35.0051 206.863C34.3281 206.863 33.7418 206.754 33.2463 206.535C32.7538 206.317 32.3661 206.012 32.0829 205.621C31.8028 205.23 31.6443 204.776 31.6074 204.259H32.7892C32.82 204.616 32.94 204.912 33.1493 205.146C33.3617 205.376 33.6294 205.549 33.9526 205.663C34.2788 205.773 34.6297 205.829 35.0051 205.829C35.4422 205.829 35.8346 205.758 36.1823 205.617C36.5301 205.472 36.8056 205.272 37.0087 205.016C37.2118 204.758 37.3134 204.456 37.3134 204.112C37.3134 203.798 37.2257 203.542 37.0502 203.345C36.8748 203.148 36.644 202.988 36.3578 202.865C36.0715 202.742 35.7622 202.634 35.4299 202.542L34.2665 202.21C33.5279 201.997 32.9431 201.694 32.5122 201.3C32.0814 200.906 31.8659 200.391 31.8659 199.754C31.8659 199.224 32.009 198.763 32.2953 198.369C32.5846 197.972 32.9723 197.664 33.4586 197.445C33.948 197.224 34.4942 197.113 35.0975 197.113C35.7068 197.113 36.2485 197.222 36.7225 197.441C37.1964 197.656 37.5719 197.952 37.8489 198.327C38.129 198.703 38.2767 199.129 38.2921 199.606H37.1841ZM43.129 206.845C42.4457 206.845 41.8564 206.694 41.3609 206.392C40.8684 206.087 40.4884 205.663 40.2206 205.118C39.9559 204.57 39.8236 203.933 39.8236 203.207C39.8236 202.48 39.9559 201.84 40.2206 201.286C40.4884 200.729 40.8608 200.295 41.3378 199.984C41.8179 199.67 42.378 199.514 43.0182 199.514C43.3875 199.514 43.7522 199.575 44.1123 199.698C44.4724 199.821 44.8001 200.021 45.0956 200.298C45.3911 200.572 45.6265 200.935 45.8019 201.388C45.9774 201.84 46.0651 202.397 46.0651 203.059V203.521H40.5992V202.579H44.9571C44.9571 202.179 44.8771 201.822 44.7171 201.508C44.5601 201.194 44.3354 200.946 44.043 200.765C43.7537 200.583 43.4121 200.492 43.0182 200.492C42.5842 200.492 42.2088 200.6 41.8918 200.815C41.5778 201.028 41.3363 201.305 41.167 201.646C40.9977 201.988 40.9131 202.354 40.9131 202.745V203.373C40.9131 203.908 41.0054 204.362 41.1901 204.735C41.3778 205.104 41.6379 205.386 41.9702 205.58C42.3026 205.77 42.6889 205.866 43.129 205.866C43.4152 205.866 43.6737 205.826 43.9046 205.746C44.1385 205.663 44.34 205.54 44.5093 205.376C44.6786 205.21 44.8094 205.004 44.9017 204.758L45.9543 205.053C45.8435 205.41 45.6573 205.724 45.3957 205.995C45.1341 206.263 44.8109 206.472 44.4262 206.623C44.0415 206.771 43.6091 206.845 43.129 206.845ZM47.7224 209.356V199.606H48.7749V200.732H48.9042C48.9842 200.609 49.095 200.452 49.2366 200.261C49.3812 200.068 49.5874 199.895 49.8552 199.744C50.126 199.59 50.4923 199.514 50.9539 199.514C51.551 199.514 52.0773 199.663 52.5327 199.961C52.9882 200.26 53.3437 200.683 53.5992 201.231C53.8546 201.779 53.9823 202.425 53.9823 203.17C53.9823 203.921 53.8546 204.572 53.5992 205.123C53.3437 205.67 52.9898 206.095 52.5374 206.397C52.085 206.695 51.5633 206.845 50.9724 206.845C50.5169 206.845 50.1522 206.769 49.8783 206.618C49.6044 206.464 49.3935 206.291 49.2458 206.097C49.0981 205.9 48.9842 205.737 48.9042 205.607H48.8119V209.356H47.7224ZM48.7934 203.151C48.7934 203.687 48.8719 204.159 49.0288 204.569C49.1858 204.975 49.4151 205.293 49.7167 205.524C50.0183 205.752 50.3876 205.866 50.8247 205.866C51.2801 205.866 51.6602 205.746 51.9649 205.506C52.2727 205.263 52.5035 204.936 52.6574 204.527C52.8144 204.115 52.8928 203.656 52.8928 203.151C52.8928 202.653 52.8159 202.203 52.662 201.803C52.5112 201.4 52.2819 201.082 51.9742 200.848C51.6695 200.611 51.2863 200.492 50.8247 200.492C50.3815 200.492 50.0091 200.605 49.7075 200.829C49.4059 201.051 49.1781 201.362 49.0242 201.762C48.8703 202.159 48.7934 202.622 48.7934 203.151ZM58.7281 199.606V200.529H55.0533V199.606H58.7281ZM56.1244 197.907H57.2139V204.666C57.2139 204.973 57.2585 205.204 57.3477 205.358C57.4401 205.509 57.557 205.61 57.6986 205.663C57.8432 205.712 57.9956 205.737 58.1556 205.737C58.2756 205.737 58.3741 205.73 58.4511 205.718C58.528 205.703 58.5896 205.69 58.6357 205.681L58.8573 206.66C58.7835 206.688 58.6804 206.715 58.548 206.743C58.4157 206.774 58.2479 206.789 58.0448 206.789C57.7371 206.789 57.4354 206.723 57.14 206.591C56.8476 206.458 56.6045 206.257 56.4106 205.986C56.2198 205.715 56.1244 205.373 56.1244 204.961V197.907ZM61.6953 197.242V198.073C61.6953 198.326 61.6491 198.595 61.5568 198.881C61.4676 199.164 61.3352 199.44 61.1598 199.707C60.9874 199.972 60.7782 200.203 60.5319 200.4L59.941 199.92C60.1349 199.643 60.3027 199.355 60.4442 199.057C60.5889 198.755 60.6612 198.433 60.6612 198.092V197.242H61.6953ZM63.116 206.697V205.866L66.2368 202.45C66.603 202.05 66.9046 201.702 67.1416 201.406C67.3786 201.108 67.554 200.828 67.6679 200.566C67.7848 200.301 67.8433 200.024 67.8433 199.735C67.8433 199.403 67.7633 199.115 67.6032 198.872C67.4463 198.629 67.2308 198.441 66.9569 198.309C66.683 198.176 66.3753 198.11 66.0336 198.11C65.6705 198.11 65.3535 198.186 65.0826 198.336C64.8149 198.484 64.6071 198.692 64.4594 198.96C64.3148 199.227 64.2424 199.541 64.2424 199.901H63.153C63.153 199.347 63.2807 198.861 63.5361 198.443C63.7916 198.024 64.1393 197.698 64.5794 197.464C65.0226 197.23 65.5197 197.113 66.0706 197.113C66.6245 197.113 67.1154 197.23 67.5432 197.464C67.971 197.698 68.3065 198.013 68.5496 198.41C68.7928 198.807 68.9143 199.249 68.9143 199.735C68.9143 200.083 68.8512 200.423 68.725 200.755C68.6019 201.085 68.3865 201.452 68.0787 201.859C67.774 202.262 67.3509 202.754 66.8092 203.336L64.6856 205.607V205.681H69.0805V206.697H63.116ZM70.5624 204.758V203.816L74.7172 197.242H75.4005V198.701H74.9388L71.7996 203.668V203.742H77.3948V204.758H70.5624ZM75.0127 206.697V204.472V204.033V197.242H76.1022V206.697H75.0127Z" fill="#2B3034"/>
<rect x="32.0001" y="103" width="110" height="1" fill="#E1E7EE"/>
<rect x="32.0001" y="131" width="110" height="1" fill="#E1E7EE"/>
<rect x="32.0001" y="159" width="110" height="1" fill="#E1E7EE"/>
<rect x="32.0001" y="187" width="110" height="1" fill="#E1E7EE"/>
</svg>
